HIERARCHY
ROOT Hips
{
	OFFSET 0.00000 0.00000 0.00000
	CHANNELS 6 Xposition Yposition Zposition Yrotation Zrotation Xrotation 
	JOINT Lumbar
	{
		OFFSET 0 0 0
		CHANNELS 3 Zrotation Xrotation Yrotation
		JOINT Neck
		{
			OFFSET 0.00 0.2701 0.00
			CHANNELS 3 Zrotation Xrotation Yrotation
			End Site
			{
				OFFSET 0.00 0.1379 0.00
			}
		}
		JOINT RightShoulder
		{
			OFFSET 0.0119 0.2289 0.1181
			CHANNELS 3 Zrotation Xrotation Yrotation
			JOINT RightElbow
			{
				OFFSET 0.00 -0.1475 0.00
				CHANNELS 2 Zrotation Yrotation
				JOINT RightWrist
				{
					OFFSET 0.00 -0.1605 0.00
					CHANNELS 2 Zrotation Xrotation
					End Site
					{
						OFFSET 0.0040 -0.1068 0.0006
					}
				}
			}
		}
		JOINT LeftShoulder
		{
			OFFSET 0.0119 0.2289 -0.1181
			CHANNELS 3 Zrotation Xrotation Yrotation
			JOINT LeftElbow
			{
				OFFSET 0.00 -0.1475 0.00
				CHANNELS 2 Zrotation Yrotation
				JOINT LeftWrist
				{
					OFFSET 0.00 -0.1605 0.00
					CHANNELS 2 Zrotation Xrotation
					End Site
					{
						OFFSET 0.0040 -0.1068 -0.0006
					}
				}
			}
		}
	}
	JOINT RightHip
	{
		OFFSET 0.0316 -0.0424 0.0458
		CHANNELS 3 Zrotation Xrotation Yrotation
		JOINT RightKnee
		{
			OFFSET 0.00 -0.2438 0.00
			CHANNELS 1 Zrotation
			JOINT RightAnkle
			{
				OFFSET 0.00 -0.2449 0.00
				CHANNELS 3 Zrotation Xrotation Yrotation
				End Site
				{
					OFFSET 0.1237 -0.0542 0.0051
				}
			}
		}
	}
	JOINT LeftHip
	{
		OFFSET 0.0316 -0.0424 -0.0458
		CHANNELS 3 Zrotation Xrotation Yrotation
		JOINT LeftKnee
		{
			OFFSET 0.00 -0.2438 0.00
			CHANNELS 1 Zrotation
			JOINT LeftAnkle
			{
				OFFSET 0.00 -0.2449 0.00
				CHANNELS 3 Zrotation Xrotation Yrotation
				End Site
				{
					OFFSET 0.1237 -0.0542 -0.0051
				}
			}
		}
	}
}
MOTION
Frames: 14
Frame Time: 0.02
0.01883 0.04771 0.38126 450.20882 0 0.64043 -21.81219 -0.41651 0.43002 -7.89635 2.89154 1.11155 42.23693 -6.93832 27.57145 58.95868 85.34295 -18.56432 -3.64598 46.92334 1.79995 -29.7693 42.78693 -99.30934 -41.21544 4.90321 120.68586 -30.78648 -40.35488 -123.13316 0.21381 0.75734 9.87741 126.68096 32.08563 29.24753 -127.42669 0.84205 -4e-05 -13.00609
0.01881 0.0477 0.38126 450.25966 0 0.57743 -21.60341 -0.35023 0.61508 -8.10245 2.74922 1.07512 41.01273 -7.43049 26.62583 60.24192 84.35042 -19.00647 -3.42225 45.82232 2.06118 -28.79728 44.04704 -97.02168 -41.68067 4.61796 120.73811 -30.79057 -40.18762 -123.12978 0.20958 0.75877 9.93167 126.68096 32.08563 29.27503 -127.4073 0.77902 -5e-05 -13.00609
0.01881 0.04771 0.38127 450.31637 0 0.50252 -21.3334 -0.26937 0.78496 -8.39012 2.60397 0.99386 40.02863 -7.71161 25.7121 60.86403 83.32648 -19.27604 -3.21323 45.01723 2.23141 -27.99102 44.63379 -94.27254 -41.47415 4.32761 120.78568 -30.79255 -39.99156 -123.12542 0.23094 0.76566 10.00822 126.68096 32.08563 29.29672 -127.38394 0.71311 -5e-05 -13.00609
0.0188 0.0477 0.38129 450.36469 0 0.43134 -21.0869 -0.1962 0.95821 -8.62888 2.46172 0.93398 38.95976 -8.07706 24.82162 61.72151 82.3538 -19.62282 -3.00607 44.10849 2.43276 -27.14974 45.4342 -91.78335 -41.56504 4.04619 120.82266 -30.79439 -39.82913 -123.1154 0.24316 0.77032 10.07057 126.68096 32.08563 29.31739 -127.36211 0.65832 -5e-05 -13.00609
0.01878 0.04772 0.38126 450.43479 0 0.36599 -20.85936 -0.11907 1.14954 -8.9178 2.31161 0.87218 37.77958 -8.4968 23.76534 62.86608 81.21069 -19.9799 -2.76065 43.05714 2.67798 -26.12469 46.63793 -89.06879 -41.70981 3.73447 120.90918 -30.80036 -39.58502 -123.13049 0.24626 0.77415 10.15023 126.68096 32.08563 29.34961 -127.34165 0.56848 -5e-05 -13.00609
0.01879 0.04769 0.38132 450.46224 0 0.28645 -20.57674 -0.04648 1.2979 -9.12153 2.17774 0.80246 36.89214 -8.75016 23.06699 63.24916 80.43025 -20.27737 -2.60035 42.37537 2.81106 -25.52529 46.84467 -86.72461 -41.576 3.48574 120.89434 -30.79751 -39.50071 -123.0938 0.27353 0.78086 10.19923 126.68096 32.08563 29.35923 -127.31732 0.54786 -5e-05 -13.00609
0.01891 0.04751 0.38161 450.3654 0 0.16738 -20.16597 0.00955 1.33713 -9.07088 2.08596 0.72659 36.74838 -8.60888 23.3182 61.71171 80.53712 -20.39127 -2.65749 42.67437 2.64336 -26.08167 44.36077 -85.44739 -40.82128 3.41017 120.58433 -30.7696 -39.88399 -122.9084 0.36576 0.79499 10.15647 126.68096 32.08563 29.29117 -127.28314 0.72751 -5e-05 -13.00609
0.01906 0.04727 0.38198 450.22662 0 0.03528 -19.69993 0.06067 1.33206 -8.93204 2.01116 0.64311 36.89395 -8.30414 23.93469 59.42525 81.03113 -20.45967 -2.80222 43.33196 2.36838 -27.05866 40.91214 -84.57135 -39.80817 3.39876 120.17601 -30.73316 -40.42501 -122.67208 0.48041 0.81166 10.08243 126.68096 32.08563 29.20386 -127.24512 0.97468 -5e-05 -13.00609
0.01919 0.04706 0.38231 450.11066 0 -0.08869 -19.25369 0.11439 1.34324 -8.83235 1.9311 0.55978 36.91108 -8.06538 24.40494 57.46704 81.43096 -20.58924 -2.91652 43.80521 2.1508 -27.83199 37.9697 -83.55942 -38.92205 3.35971 119.82371 -30.70148 -40.8807 -122.463 0.58181 0.82663 10.02366 126.68096 32.08563 29.13688 -127.209 1.18449 -5e-05 -13.00609
0.01934 0.04686 0.38264 449.97906 0 -0.22279 -18.82892 0.16703 1.37081 -8.73724 1.84119 0.48907 36.92039 -7.8555 24.7933 55.53794 81.49325 -20.54766 -2.99293 44.37563 1.8928 -28.66503 34.72012 -82.34075 -37.97688 3.31439 119.4229 -30.66598 -41.39304 -122.23655 0.69726 0.84409 9.96089 126.68096 32.08563 29.02143 -127.1724 1.42202 -5e-05 -13.00609
0.01947 0.04662 0.383 449.86991 0 -0.33825 -18.34564 0.2206 1.35329 -8.61333 1.77508 0.39062 37.01561 -7.54801 25.43791 53.37798 82.3399 -20.84693 -3.16739 44.82894 1.69566 -29.46974 31.88731 -81.64709 -37.09654 3.29701 119.10038 -30.63644 -41.8252 -122.03425 0.78815 0.85689 9.89918 126.68096 32.08563 29.00157 -127.13557 1.61844 -5e-05 -13.00609
0.01952 0.04627 0.38344 449.83395 0 -0.40283 -17.72693 0.27747 1.22706 -8.40888 1.77724 0.21957 37.24322 -7.02324 26.70492 50.77592 85.34991 -22.15614 -3.6038 44.8377 1.6851 -30.10687 30.46574 -82.36853 -36.50845 3.34549 119.01397 -30.62558 -41.99738 -121.91049 0.80749 0.85615 9.8441 126.68096 32.08563 29.25841 -127.10209 1.67932 -5e-05 -13.0061
0.01955 0.04586 0.38391 449.82184 0 -0.44729 -17.04905 0.3354 1.05586 -8.18312 1.80139 0.02072 37.55307 -6.40449 28.2149 47.96989 89.11636 -23.79772 -4.13335 44.7217 1.74141 -30.69665 29.49577 -83.59582 -35.98913 3.41943 119.01073 -30.62104 -42.08344 -121.81287 0.80064 0.85056 9.79176 126.68097 32.08563 29.61088 -127.06787 1.69724 -4e-05 -13.00611
0.01959 0.04546 0.38436 449.79811 0 -0.49864 -16.3905 0.39315 0.90243 -7.98054 1.81126 -0.16661 37.84562 -5.822 29.61251 45.25071 92.4794 -25.25317 -4.61201 44.68246 1.77261 -31.29972 28.30626 -84.55115 -35.40803 3.47845 118.9719 -30.6135 -42.20918 -121.70372 0.80476 0.84724 9.7407 126.68097 32.08563 29.914 -127.03212 1.73876 -4e-05 -13.00612
